<?xml version="1.0"?>
<svg fill="#646464" xmlns="http://www.w3.org/2000/svg" xmlns:xlink="http://www.w3.org/1999/xlink" version="1.1" x="0px" y="0px" viewBox="0 0 64 80" style="enable-background:new 0 0 64 64;" xml:space="preserve">
  <path d="M62.1,50.1c-0.6-0.1-1,0.3-1.1,0.9c0,0-0.5,3.5-2.9,4.8c-1.3,0.7-3.1,0.6-5.2-0.3c-0.3-8-2.2-15.3-5.5-21.7  c2.1-1.2,3.4-3.5,3.4-6c0-3.5-5.5-13.4-6.1-14.5c-0.2-0.3-0.5-0.5-0.9-0.5s-0.7,0.2-0.9,0.5c-0.1,0.2-2.6,4.7-4.4,8.8  C23.7,7.7,3,5.3,2.1,5.2c-0.3,0-0.6,0.1-0.8,0.3C1.1,5.8,1,6.1,1,6.4C5.7,31.6,14.7,48,27.7,55.1c5.3,2.9,10.5,3.7,14.6,3.7  c4.9,0,8.5-1.1,9.6-1.6c1.5,0.7,2.9,1,4.2,1c1.1,0,2.1-0.2,3-0.7c3.3-1.8,3.8-6.1,3.9-6.3C63.1,50.7,62.7,50.2,62.1,50.1z   M39.8,46.5l-1-13.8c1.3,1.3,3,2.1,5,2.1c0.3,0,0.5,0,0.8,0c0.1,0,0.2,0,0.2,0c0.2,0,0.4-0.1,0.6-0.1c0,0,0.1,0,0.1,0  c3.1,5.9,4.9,12.6,5.3,19.9C47.3,52.5,43.6,49.7,39.8,46.5z M43.8,15.8c2.3,4.2,5,9.9,5,11.9c0,2.1-1.2,3.9-3.2,4.6  c-0.6,0.2-1.2,0.4-1.8,0.4c-2.8,0-5-2.2-5-5c0-0.1,0-0.1,0-0.2c0-0.5,0.3-1.5,1-3.4C41,21.3,42.8,17.8,43.8,15.8z M28.6,53.3  C16.4,46.6,7.9,31.2,3.2,7.4c4.9,0.8,22.2,4.4,34.5,16.7c0,0,0,0,0,0c-0.1,0.4-0.3,0.7-0.4,1c0,0.1,0,0.1-0.1,0.2  c-0.1,0.3-0.2,0.6-0.2,0.9c0,0,0,0.1,0,0.1c-0.1,0.3-0.1,0.5-0.1,0.7c0,0,0,0.1,0,0.1c0,0.2-0.1,0.5-0.1,0.6c0,1.2,0.3,2.3,0.8,3.3  c-0.5,0.1-0.9,0.5-0.8,1l0.9,12.5c-3.2-2.9-6.3-6.1-9.3-9.3l1.1-13c0-0.6-0.4-1-0.9-1.1c-0.5,0-1,0.4-1.1,0.9l-0.9,11.2  c-2.6-2.9-5.1-5.7-7.2-8.4l1.1-8.6c0.1-0.5-0.3-1-0.9-1.1c-0.5-0.1-1,0.3-1.1,0.9l-0.9,6.7c-4.6-5.7-7.7-9.9-7.7-10  c-0.3-0.4-0.9-0.5-1.4-0.2C8,12.9,7.9,13.5,8.2,14c0.3,0.5,3.3,4.5,7.7,10l-5.7-0.6c-0.6-0.1-1,0.3-1.1,0.9c-0.1,0.5,0.3,1,0.9,1.1  l7.7,0.8c2.2,2.6,4.6,5.5,7.3,8.4l-8.9-0.3c-0.6,0-1,0.4-1,1c0,0.6,0.4,1,1,1l10.9,0.3c3,3.2,6.1,6.4,9.3,9.3H25.3c-0.6,0-1,0.4-1,1  s0.4,1,1,1h13.1c3.7,3.2,7.4,5.9,10.9,7.9C45.5,56.9,37.3,58,28.6,53.3z"/>
  <path d="M42,31.7c2.3,0,4.5-1.2,5.8-3.1c0.3-0.5,0.2-1.1-0.3-1.4c-0.5-0.3-1.1-0.2-1.4,0.3c-0.9,1.4-2.5,2.2-4.1,2.2  c-0.6,0-1,0.4-1,1S41.5,31.7,42,31.7z"/>
  <text x="0" y="90" fill="#000000" font-size="5px" font-weight="bold" font-family="'Helvetica Neue', Helvetica, Arial-Unicode, Arial, Sans-serif">Created by Kahalap</text>
  <text x="0" y="90" fill="#000000" font-size="5px" font-weight="bold" font-family="'Helvetica Neue', Helvetica, Arial-Unicode, Arial, Sans-serif">from the Noun Project</text>
</svg>
