<?xml version="1.0"?>
<svg fill="#646464" xmlns="http://www.w3.org/2000/svg" xmlns:xlink="http://www.w3.org/1999/xlink" version="1.1" x="0px" y="0px" viewBox="0 0 60 75" style="enable-background:new 0 0 60 60;" xml:space="preserve">
  <path d="M33.2090454,24.6341553c0-0.5983887-0.1751099-1.1522217-0.4611816-1.6322021l4.0441895-4.0441895  c0.3082886-0.3082886,0.3082886-0.8076172,0-1.1159058c-0.3082275-0.3082275-0.8076172-0.3082275-1.1158447,0l-4.0440063,4.0440674  c-0.4799194-0.2863159-1.0337524-0.4614258-1.632019-0.4614258c-1.7697144,0-3.2092285,1.4395142-3.2092285,3.2096558  c0,1.7693481,1.4395142,3.2088623,3.2092285,3.2088623C31.7695313,27.8430176,33.2090454,26.4035034,33.2090454,24.6341553z   M30.0001831,26.2647705c-0.899292,0-1.6310425-0.7313232-1.6310425-1.6306152c0-0.899353,0.7317505-1.6314087,1.6310425-1.6314087  c0.899353,0,1.6306763,0.7320557,1.6306763,1.6314087C31.6308594,25.5334473,30.8995361,26.2647705,30.0001831,26.2647705z"/>
  <path d="M12.2885742,40.6268921v8.3118896c0,0.4361572,0.3533325,0.7891235,0.7891235,0.7891235h4.9277344  c0.435791,0,0.7891235-0.3529663,0.7891235-0.7891235v-0.8946533h22.4108887v0.8946533  c0,0.4361572,0.3533325,0.7891235,0.7891235,0.7891235h4.9277344c0.435791,0,0.7891235-0.3529663,0.7891235-0.7891235v-8.3118896  c0-0.4362183-0.3533325-0.7891235-0.7891235-0.7891235h-4.9277344c-0.435791,0-0.7891235,0.3529053-0.7891235,0.7891235v0.8939209  h-7.8121948v-2.9470825c2.5817871-0.6289063,4.8972168-1.9436035,6.723877-3.7588501  c0.0117798-0.010498,0.0270386-0.0141602,0.0383301-0.0254517s0.0149536-0.0264893,0.0254517-0.038269  c2.5819092-2.5979004,4.1809692-6.1737061,4.1809692-10.1170044c0-3.9428711-1.5987549-7.5183716-4.1801147-10.116394  c-0.0108032-0.012207-0.0145874-0.0279541-0.0263062-0.0396729s-0.0275269-0.015564-0.0397949-0.0264282  c-2.5978394-2.5811157-6.1729736-4.1796265-10.1154785-4.1796265c-3.9425659,0-7.5177002,1.5985107-10.1156006,4.1794434  c-0.0123901,0.0109253-0.0281982,0.0147705-0.0400391,0.0266113c-0.0117798,0.0117798-0.015625,0.0275879-0.0264893,0.039917  c-2.5812378,2.5979614-4.1799316,6.1734009-4.1799316,10.1161499c0,3.9431763,1.598999,7.5188599,4.1808472,10.1167603  c0.0105591,0.0119019,0.0142212,0.0271606,0.0255737,0.0385132s0.0266724,0.0150146,0.0385742,0.0255737  c1.8266602,1.8151245,4.1419678,3.1297607,6.7236328,3.758667v2.9471436h-7.8121948v-0.8939209  c0-0.4362183-0.3533325-0.7891235-0.7891235-0.7891235h-4.9277344  C12.6419067,39.8377686,12.2885742,40.1906738,12.2885742,40.6268921z M42.7836304,41.4159546h3.3495483v6.7337036h-3.3495483  v-0.8946533v-4.9451294V41.4159546z M30.0001831,35.8043213c-0.435791,0-0.7891235,0.3529053-0.7891235,0.7891235v0.7838135  c-2.9300537-0.1802368-5.5913086-1.3460693-7.6616821-3.177002l0.5519409-0.552124  c0.3082275-0.3082886,0.3082275-0.8076172,0-1.1159058c-0.3082275-0.3082275-0.8084106-0.3082275-1.1158447,0l-0.552002,0.5521851  c-1.8309937-2.0701294-2.9968872-4.7312622-3.177124-7.6611328h0.7841797c0.435791,0,0.7891235-0.3529663,0.7891235-0.7891235  s-0.3533325-0.7891235-0.7891235-0.7891235h-0.7841797c0.1802979-2.9300537,1.3462524-5.5913086,3.1773682-7.6616821  l0.5517578,0.5519409c0.1541138,0.1541138,0.3560181,0.2311401,0.5579224,0.2311401s0.4038086-0.0770264,0.5579224-0.2311401  c0.3082275-0.3082886,0.3082275-0.8076172,0-1.1159058l-0.5517578-0.5519409  c2.0703125-1.8309937,4.7315674-2.9969482,7.661499-3.1771851v0.7838135c0,0.4361572,0.3533325,0.7891235,0.7891235,0.7891235  s0.7891235-0.3529663,0.7891235-0.7891235v-0.7838135c2.9298706,0.1802368,5.5910645,1.3461304,7.6612549,3.177063  l-0.5518799,0.552063c-0.3082275,0.3082886-0.3082275,0.8076172,0,1.1159058  c0.1541138,0.1541138,0.3560181,0.2311401,0.5579224,0.2311401s0.4041748-0.0770264,0.5579224-0.2311401l0.5518799-0.552063  c1.8310547,2.0703735,2.9970093,4.7317505,3.1772461,7.6618042h-0.7841797c-0.435791,0-0.7891235,0.3529663-0.7891235,0.7891235  s0.3533325,0.7891235,0.7891235,0.7891235h0.7841797c-0.1802368,2.9299316-1.3461304,5.5910645-3.177063,7.6611938  l-0.552063-0.5522461c-0.3082275-0.3082275-0.8076172-0.3082275-1.1158447,0c-0.3082275,0.3082886-0.3082275,0.8076172,0,1.1159058  l0.552063,0.5522461c-2.0702515,1.8308716-4.7315063,2.9966431-7.661438,3.1768799v-0.7838135  C30.7893066,36.1572266,30.4359741,35.8043213,30.0001831,35.8043213z M28.1849976,38.8677979  c0.5959473,0.0756836,1.1990356,0.1276855,1.8151855,0.1276855c0.6160278,0,1.2189941-0.052002,1.8148193-0.1276245v2.6529541  h-3.6300049V38.8677979z M27.395874,43.098999h5.208252h8.6013184v3.3668823H18.7945557V43.098999H27.395874z   M13.8668213,41.4159546h3.3495483v0.8939209v4.9451294v0.8946533h-3.3495483V41.4159546z"/>
  <text x="0" y="140" fill="#000000" font-size="5px" font-weight="bold" font-family="'Helvetica Neue', Helvetica, Arial-Unicode, Arial, Sans-serif">Created by Vectorstall</text>
  <text x="0" y="140" fill="#000000" font-size="5px" font-weight="bold" font-family="'Helvetica Neue', Helvetica, Arial-Unicode, Arial, Sans-serif">from the Noun Project</text>
</svg>
