<?xml version="1.0"?>
<svg fill="#646464" xmlns="http://www.w3.org/2000/svg" xmlns:xlink="http://www.w3.org/1999/xlink" version="1.1" x="0px" y="0px" viewBox="0 0 34 42.5" enable-background="new 0 0 34 34" xml:space="preserve">
  <g>
    <path d="M26.7,25c-0.3-2.8-2.6-5-5.5-5c-0.1,0-0.2,0-0.3,0c-1.1-2.1-3.4-3.5-5.8-3.5c-3.5,0-6.4,2.8-6.6,6.3   C4.9,22.1,1,25.1,1,29.3c0,1.1,0.2,2.5,1.2,2.5h26.6c0.9,0,1.1-0.9,1.1-1.8C30,27.8,28.6,25.9,26.7,25z"/>
    <path d="M15.1,14.5c2.8,0,5.3,1.3,6.9,3.5c0.7,0.1,1.4,0.3,2.1,0.6c0.6-0.9,0.9-1.9,0.9-3c0-3.1-2.5-5.6-5.6-5.6   c-2.7,0-5,2-5.5,4.6C14.4,14.5,14.7,14.5,15.1,14.5z"/>
    <path d="M19.6,6.4c0.6,0,1-0.4,1-1V3.2c0-0.6-0.4-1-1-1s-1,0.4-1,1v2.2C18.6,6,19,6.4,19.6,6.4z"/>
    <path d="M13.7,7.3c0.3,0.5,0.9,0.6,1.4,0.4c0.5-0.3,0.6-0.9,0.4-1.4l-1.1-1.9C14,3.9,13.4,3.7,12.9,4c-0.5,0.3-0.6,0.9-0.4,1.4   L13.7,7.3z"/>
    <path d="M8.4,10.2l1.9,1.1c0.5,0.3,1.1,0.1,1.4-0.4c0.3-0.5,0.1-1.1-0.4-1.4L9.4,8.5C8.9,8.2,8.3,8.4,8,8.9   C7.7,9.4,7.9,10,8.4,10.2z"/>
    <path d="M7.5,16.3h2.2c0.6,0,1-0.4,1-1s-0.4-1-1-1H7.5c-0.6,0-1,0.4-1,1S7,16.3,7.5,16.3z"/>
    <path d="M30.8,20.9l-1.9-1.1c-0.5-0.3-1.1-0.1-1.4,0.4s-0.1,1.1,0.4,1.4l1.9,1.1c0.5,0.3,1.1,0.1,1.4-0.4   C31.4,21.8,31.3,21.2,30.8,20.9z"/>
    <path d="M32,14.3h-2.2c-0.6,0-1,0.4-1,1s0.4,1,1,1H32c0.6,0,1-0.4,1-1S32.5,14.3,32,14.3z"/>
    <path d="M28.8,11.4l1.9-1.1c0.5-0.3,0.6-0.9,0.4-1.4c-0.3-0.5-0.9-0.6-1.4-0.4l-1.9,1.1c-0.5,0.3-0.6,0.9-0.4,1.4   C27.8,11.5,28.4,11.6,28.8,11.4z"/>
    <path d="M24.1,7.7c0.5,0.3,1.1,0.1,1.4-0.4l1.1-1.9c0.3-0.5,0.1-1.1-0.4-1.4c-0.5-0.3-1.1-0.1-1.4,0.4l-1.1,1.9   C23.5,6.8,23.7,7.4,24.1,7.7z"/>
  </g>
  <text x="0" y="49" fill="#f0f0f0" font-size="5px" font-weight="bold" font-family="'Helvetica Neue', Helvetica, Arial-Unicode, Arial, Sans-serif">Created by ProSymbols</text>
  <text x="0" y="54" fill="#f0f0f0" font-size="5px" font-weight="bold" font-family="'Helvetica Neue', Helvetica, Arial-Unicode, Arial, Sans-serif">from the Noun Project</text>
</svg>
